<svg width="121" height="122" viewBox="0 0 121 122" fill="none" xmlns="http://www.w3.org/2000/svg">
<ellipse cx="22.1806" cy="22.4844" rx="22.1806" ry="22.4844" transform="matrix(-0.994752 -0.102318 -0.102318 0.994752 111.154 4.53906)" fill="#6B93CF"/>
<path d="M84.7594 47.336C83.7808 56.8508 90.7007 65.3575 100.216 66.3362C109.73 67.3149 118.237 60.3949 119.216 50.8801C120.195 41.3652 113.275 32.8585 103.76 31.8798C94.2448 30.9011 85.7381 37.8211 84.7594 47.336Z" fill="#6B93CF"/>
<path d="M4.71046 65.3705C1.80876 93.5812 22.4672 115.457 56.5367 116.824C124.375 119.544 108.316 88.5504 100.501 72.4742C89.3595 49.5559 89.2553 22.446 61.0445 19.5443C32.8337 16.6426 7.61215 37.1597 4.71046 65.3705Z" fill="#6B93CF"/>
</svg>
