<svg width="50" height="62" viewBox="0 0 50 62" fill="none" xmlns="http://www.w3.org/2000/svg">
<ellipse cx="15.5178" cy="9.98536" rx="9.85042" ry="9.98536" fill="#1753E9"/>
<path d="M15.3828 20.1057C15.3828 24.3535 11.9393 27.7971 7.69142 27.7971C3.44357 27.7971 0 24.3535 0 20.1057C0 15.8578 3.44357 12.4142 7.69142 12.4142C11.9393 12.4142 15.3828 15.8578 15.3828 20.1057Z" fill="#1753E9"/>
<path d="M49.9268 31.7102C49.9268 44.3048 39.8065 53.0303 24.6935 52.0858C-5.39901 50.205 3.10355 37.2427 7.28661 30.4958C13.25 20.8774 14.5279 8.90585 27.1224 8.90585C39.7169 8.90585 49.9268 19.1157 49.9268 31.7102Z" fill="#2A8EFF"/>
<ellipse cx="26.4049" cy="27.4413" rx="8.65772" ry="10.4281" fill="white"/>
<ellipse cx="43.5045" cy="27.981" rx="5.16009" ry="9.11111" fill="white"/>
<ellipse cx="29.901" cy="28.0737" rx="4.901" ry="5.07372" fill="#3C3131"/>
<ellipse cx="45.4676" cy="28.0737" rx="3.06583" ry="4.12375" fill="#3C3131"/>
<path d="M40.9772 33.1078C43.0315 35.4924 41.3684 39.1907 38.2213 39.2362V39.2362C35.5078 39.2755 33.6725 36.4824 34.7855 34.0073V34.0073C35.8986 31.5322 39.2059 31.0517 40.9772 33.1078V33.1078Z" fill="#FFC832"/>
<path d="M26.2192 41.4253C11.9844 52.3509 46.7123 54.6643 48.0942 52.8634C50.7672 48.5081 46.0572 48.5016 41.8451 45.2695C37.633 42.0374 34.3399 38.3422 32.9581 40.1431C31.5762 41.944 22.9989 38.9543 26.2192 41.4253Z" fill="#2A8EFF"/>
<path d="M39.1 36.6388L41.1511 37.7399L42.3386 38.366L43.5045 38.841L43.6988 38.8842L43.9147 38.474L44.0658 38.2149L44.3249 37.6104L39.1 36.6388Z" fill="#2A8EFF"/>
</svg>
