<svg width="599" height="605" viewBox="0 0 599 605" fill="none" xmlns="http://www.w3.org/2000/svg">
<ellipse cx="109.815" cy="111.32" rx="109.815" ry="111.32" transform="matrix(-0.994752 -0.102318 -0.102318 0.994752 550.319 22.4722)" fill="#B8BFC5"/>
<path d="M419.642 234.36C414.796 281.468 449.057 323.584 496.165 328.43C543.273 333.275 585.389 299.015 590.234 251.907C595.08 204.799 560.819 162.682 513.711 157.837C466.604 152.992 424.487 187.252 419.642 234.36Z" fill="#B8BFC5"/>
<path d="M23.3215 323.648C8.95527 463.319 111.234 571.627 279.912 578.391C615.777 591.86 536.271 438.411 497.578 358.819C442.416 245.35 441.9 111.13 302.23 96.7642C162.559 82.398 37.6877 183.977 23.3215 323.648Z" fill="#B8BFC5"/>
</svg>
