<svg width="100" height="106" viewBox="0 0 100 106" fill="none" xmlns="http://www.w3.org/2000/svg">
<path d="M70.0072 43.7706C69.1988 51.6294 74.9143 58.6555 82.7731 59.4638C90.6319 60.2721 97.658 54.5566 98.4663 46.6978C99.2746 38.8391 93.5591 31.813 85.7004 31.0046C77.8416 30.1963 70.8155 35.9118 70.0072 43.7706Z" fill="#1753E9"/>
<ellipse cx="18.32" cy="18.5709" rx="18.32" ry="18.5709" transform="matrix(-0.994752 -0.102318 -0.102318 0.994752 91.8071 8.42236)" fill="#1753E9"/>
<path d="M3.89049 58.6661C1.49385 81.9667 18.5566 100.035 46.6962 101.164C102.727 103.411 89.4634 77.8115 83.0084 64.5335C73.806 45.6041 73.72 23.2128 50.4194 20.8162C27.1188 18.4195 6.28713 35.3655 3.89049 58.6661Z" fill="#2A8EFF"/>
</svg>
