<svg width="1063" height="1122" viewBox="0 0 1063 1122" fill="none" xmlns="http://www.w3.org/2000/svg">
<path d="M744.698 465.605C736.1 549.203 796.898 623.942 880.495 632.541C964.093 641.139 1038.83 580.341 1047.43 496.744C1056.03 413.147 995.231 338.407 911.634 329.808C828.037 321.21 753.297 382.008 744.698 465.605Z" fill="#333333"/>
<ellipse cx="194.878" cy="197.547" rx="194.878" ry="197.547" transform="matrix(-0.994752 -0.102318 -0.102318 0.994752 976.594 89.5907)" fill="#333333"/>
<path d="M41.386 624.055C15.8918 871.914 197.396 1064.12 496.729 1076.12C1092.75 1100.02 951.662 827.714 882.997 686.469C785.108 485.109 784.193 246.923 536.334 221.429C288.476 195.935 66.8801 376.197 41.386 624.055Z" fill="#333333"/>
</svg>
